<svg xmlns="http://www.w3.org/2000/svg" width="28.5" height="28.738" viewBox="0 0 28.5 28.738">
    <defs>
        <filter id="mvu439nhra" x="20.649" y="10.808" width="7.851" height="7.842" filterUnits="userSpaceOnUse">
            <feOffset dy="1"/>
            <feGaussianBlur stdDeviation=".5" result="blur"/>
            <feFlood flood-opacity=".702"/>
            <feComposite operator="in" in2="blur"/>
            <feComposite in="SourceGraphic"/>
        </filter>
        <filter id="uwzsr5crqb" x="10.657" y="13.52" width="15.209" height="15.218" filterUnits="userSpaceOnUse">
            <feOffset dy="1"/>
            <feGaussianBlur stdDeviation=".5" result="blur-2"/>
            <feFlood flood-opacity=".702"/>
            <feComposite operator="in" in2="blur-2"/>
            <feComposite in="SourceGraphic"/>
        </filter>
    </defs>
    <path data-name="Path 29" d="M11.108 23.14v-.4l.283-.283 3.683-3.687H2.681V2.848h18.613v9.7l.168-.168 1.53-1.52a1.806 1.806 0 0 1 .988-.5V1.256A1.255 1.255 0 0 0 22.723 0H1.257A1.255 1.255 0 0 0 0 1.256v21.462a1.255 1.255 0 0 0 1.257 1.256h9.851z" style="fill:#cbcbcb"/>
    <path data-name="Path 31" d="m23.769 23.127.842-.842c0-.252 0-.542-.01-.861-.024-.965-1.213-1.636-2.392-2.2s-1.327-.514-1.389-1.213 1.137-1.413 1.36-3.272a2.874 2.874 0 1 0-5.631 0c.224 1.86 1.417 2.578 1.36 3.272s-.2.652-1.389 1.213-2.373 1.232-2.392 2.2 0 1.7 0 1.7z" transform="translate(-7.321 -5.847)" style="fill:#cbcbcb"/>
    <path data-name="Path 30" d="M39.25 44.357h3.867a1.244 1.244 0 0 0 1.246-1.246V39.24z" transform="translate(-20.383 -20.383)" style="fill:#cbcbcb"/>
    <g style="filter:url(#mvu439nhra)">
        <path data-name="Path 32" d="M50.759 26.894a.815.815 0 0 0 0-1.16L48.828 23.8a.815.815 0 0 0-1.16 0l-1.518 1.51 3.091 3.09 1.517-1.508z" transform="translate(-24 -12.25)" style="fill:#cbcbcb"/>
    </g>
    <g style="filter:url(#uwzsr5crqb)">
        <path data-name="Path 33" d="M25.14 38.2v3.091h3.091l9.117-9.127-3.091-3.094z" transform="translate(-12.98 -15.05)" style="fill:#cbcbcb"/>
    </g>
</svg>
