<svg xmlns="http://www.w3.org/2000/svg" width="48.721" height="42.333" viewBox="0 0 48.721 42.333">
    <g data-name="Group 85">
        <g data-name="Group 84">
            <path data-name="Path 90" d="M13.427 24.934a4.623 4.623 0 0 0-3.282 3.32c-.227.82-.227 34.557 0 35.377a4.642 4.642 0 0 0 3.323 3.32c.5.123 2.931.143 20.869.143 22.17 0 20.766.041 21.9-.533a5.32 5.32 0 0 0 1.878-1.824c.619-1.148.578-.164.578-16.541s.041-15.393-.578-16.541a5.32 5.32 0 0 0-1.878-1.824c-1.094-.553-.557-.533-13.087-.533H31.634l-.165-.676a5.044 5.044 0 0 0-3.633-3.71c-.826-.204-13.604-.204-14.409.022zm13.954 3.013c.784.328 1.011.717 1.259 2.132.186 1.086.268 1.312.6 1.681.516.574-.392.533 13.108.594 12.261.041 12.344.041 12.592.246.64.471.661.533.681 2.624l.021 1.927-.5-.123c-.743-.2-40.871-.2-41.615 0l-.5.082v-4.039a41.461 41.461 0 0 1 .1-4.3 1.534 1.534 0 0 1 .805-.84c.227-.1 1.569-.123 6.688-.123 5.58-.008 6.452.016 6.761.139zm27.558 12.175a2.357 2.357 0 0 1 .454.451c.206.246.206.287.206 11.375v11.129l-.248.328c-.537.7 1.362.635-20.993.635-22.17 0-20.477.041-20.993-.615l-.268-.348-.021-10.863c0-5.985 0-11.007.021-11.17a1.663 1.663 0 0 1 .846-1.025c.248-.1 3.839-.123 20.518-.1l20.229.02z" transform="translate(-9.975 -24.762)" style="fill:#fff"/>
        </g>
    </g>
</svg>
