<svg xmlns="http://www.w3.org/2000/svg" width="77.665" height="77.667" viewBox="0 0 77.665 77.667">
    <path data-name="Path 81" d="M27.089 431.773c-9.569 0-16.888-.948-21.516-5.574S0 414.252 0 404.683a3.883 3.883 0 0 1 7.766 0c0 9.038.956 13.68 3.3 16.023s6.986 3.3 16.024 3.3a3.883 3.883 0 1 1 0 7.766z" transform="translate(0 -354.108)" style="fill:#fff"/>
    <path data-name="Path 82" d="M404.683 431.791a3.883 3.883 0 0 1 0-7.766c9.038 0 13.68-.956 16.024-3.3s3.3-6.986 3.3-16.023a3.883 3.883 0 0 1 7.766 0c0 9.568-.948 16.889-5.574 21.516s-11.947 5.574-21.516 5.574z" transform="translate(-354.108 -354.126)" style="fill:#fff"/>
    <path data-name="Path 83" d="M427.889 30.973a3.882 3.882 0 0 1-3.883-3.883c0-9.038-.956-13.68-3.3-16.024s-6.986-3.3-16.024-3.3a3.883 3.883 0 0 1 0-7.767c9.569 0 16.888.948 21.516 5.574s5.574 11.947 5.574 21.516a3.882 3.882 0 0 1-3.883 3.883z" transform="translate(-354.108)" style="fill:#fff"/>
    <path data-name="Path 84" d="M201.61 382.194a3.878 3.878 0 0 1-3.108-1.552 15.536 15.536 0 0 0-24.859 0 3.883 3.883 0 0 1-6.209-4.665 23.292 23.292 0 0 1 37.277 0 3.883 3.883 0 0 1-3.1 6.215z" transform="translate(-147.24 -323.945)" style="fill:#fff"/>
    <path data-name="Path 85" d="M203.883 241.149a3.882 3.882 0 0 1-3.883-3.883v-.043a3.883 3.883 0 1 1 7.766 0v.043a3.882 3.882 0 0 1-3.883 3.883z" transform="translate(-176.701 -206.157)" style="fill:#fff"/>
    <path data-name="Path 86" d="M403.883 241.149a3.882 3.882 0 0 1-3.883-3.883v-.043a3.883 3.883 0 1 1 7.766 0v.043a3.882 3.882 0 0 1-3.883 3.883z" transform="translate(-353.401 -206.157)" style="fill:#fff"/>
    <path data-name="Path 87" d="M3.883 30.973A3.882 3.882 0 0 1 0 27.09C0 17.521.948 10.2 5.574 5.574S17.521 0 27.089 0a3.883 3.883 0 1 1 0 7.766c-9.038 0-13.68.956-16.024 3.3s-3.3 6.986-3.3 16.024a3.882 3.882 0 0 1-3.883 3.883z" style="fill:#fff"/>
</svg>
