<svg xmlns="http://www.w3.org/2000/svg" width="93.28" height="102.817" viewBox="0 0 93.28 102.817">
    <g data-name="Group 81">
        <g data-name="Group 80">
            <path data-name="Path 78" d="M105.548 26.361a27.071 27.071 0 0 1 4.79 19.161c-.174 1.437 1.611 1.7 2.352 1.785a7.07 7.07 0 0 0 .915.044c1.437 0 1.742-.74 1.829-1.437a32.047 32.047 0 0 0-5.7-22.558 31.53 31.53 0 0 0-9.189-8.623 31.914 31.914 0 0 0-38.279 3.4.926.926 0 0 1-1.045.087l-2.177-1.7a2 2 0 0 0-2.744 0 2.217 2.217 0 0 0-.435 1.829l.871 6.968a3 3 0 0 0 2.961 2.613l7.316-.915a1.879 1.879 0 0 0 .958-3.527l-1.96-1.524-.044-.3A26.926 26.926 0 0 1 97.8 19.132a26.143 26.143 0 0 1 7.748 7.229z" transform="translate(-40.618 -9.9)" style="fill:#fff"/>
            <path data-name="Path 79" d="M176.672 169.177v-34.795a5.167 5.167 0 0 0-5.182-5.182H131.6v6.968h35.1a1.45 1.45 0 0 1 1.437 1.437v28.306a1.45 1.45 0 0 1-1.437 1.437h-35.1v6.968h39.89a5.1 5.1 0 0 0 5.182-5.139z" transform="translate(-83.392 -77.247)" style="fill:#fff"/>
            <path data-name="Path 80" d="M26.082 146.532h34.795a5.167 5.167 0 0 0 5.182-5.182V74.982a5.167 5.167 0 0 0-5.182-5.182H26.082a5.167 5.167 0 0 0-5.182 5.182v66.367a5.167 5.167 0 0 0 5.182 5.183zm17.289-3.132a3.266 3.266 0 1 1 3.266-3.266 3.262 3.262 0 0 1-3.266 3.266zm-15.5-63.624a1.45 1.45 0 0 1 1.429-1.441h28.311a1.45 1.45 0 0 1 1.437 1.437v51.082a1.45 1.45 0 0 1-1.437 1.437H29.3a1.45 1.45 0 0 1-1.437-1.437V79.772z" transform="translate(-20.9 -43.715)" style="fill:#fff"/>
        </g>
    </g>
</svg>
