<svg xmlns="http://www.w3.org/2000/svg" width="50.134" height="69.27" viewBox="0 0 50.134 69.27">
    <defs>
        <clipPath id="omxasenpya">
            <path data-name="Rectangle 36" style="fill:none" d="M0 0h50.134v69.27H0z"/>
        </clipPath>
    </defs>
    <g data-name="Group 79" style="clip-path:url(#omxasenpya)">
        <path data-name="Path 69" d="M49.6 67.24a5.9 5.9 0 0 1-2.1-2.523c-.769-1.537-.324-6.729 0-10.521.1-1.114.185-2.167.245-3.085.117-1.819 1.142-17.966 1.019-24.853-.013-.7-.013-1.38-.013-2.059 0-4.41 0-8.97-3.537-15.155C41.361 2.311 30.2.183 28.306.072 24.452-.159 14.718-.137 7.621 4.914-.065 10.383 0 16.642 0 16.906a.969.969 0 0 0 1.017.973A1 1 0 0 0 2 16.864c0-.223.012-5.5 6.78-10.32 6.58-4.683 15.763-4.689 19.409-4.476 2.449.144 12.1 2.4 15.284 7.968 3.272 5.725 3.273 9.824 3.273 14.164 0 .69 0 1.386.013 2.093.122 6.807-.9 22.879-1.015 24.689-.059.905-.148 1.945-.242 3.044-.478 5.589-.743 9.692.2 11.585a7.524 7.524 0 0 0 2.988 3.412.993.993 0 0 0 1.33-.438 1.006 1.006 0 0 0-.42-1.345" style="fill:#fff"/>
        <path data-name="Path 70" d="M9.449 7.637a20.166 20.166 0 0 0-4.061 4.6 15.665 15.665 0 0 0-2.075 5.016 1 1 0 0 0 1.962.388 13.807 13.807 0 0 1 1.783-4.3 18.225 18.225 0 0 1 3.658-4.153 1 1 0 0 0-1.267-1.551" style="fill:#fff"/>
        <path data-name="Path 71" d="M7.486 17.79a1 1 0 0 0 .914 1.077.75.75 0 0 0 .082 0 1 1 0 0 0 .995-.92 9.438 9.438 0 0 1 1.189-3.82 15.683 15.683 0 0 1 2.8-3.471 1 1 0 1 0-1.228-1.579 17.4 17.4 0 0 0-3.313 4.058 11.461 11.461 0 0 0-1.439 4.655" style="fill:#fff"/>
        <path data-name="Path 72" d="M21.027 12.537a1 1 0 0 0-1.748.972 28.007 28.007 0 0 1 2.138 8.273c.27 2.7.656 11.74.56 15.877a47.9 47.9 0 0 1-1.467 11.792q-.171.593-.368 1.175a7.025 7.025 0 0 0-.091-.692c-.664-3.359-2.159-3.673-6.315-2.906-3.945.727-4.575-.532-4.918-1.215a2.664 2.664 0 0 1-.028-.508 2.575 2.575 0 0 0-2.517-2.945c-.738-.09-.944-.354-.956-.386a.258.258 0 0 1 .16-.079 1 1 0 0 0 .772-1.184.986.986 0 0 0-.654-.722.984.984 0 0 0-.272-.178c-.551-.219-.643-.4-.643-.4-.042-.285.727-1.109.979-1.379l.249-.27a1.465 1.465 0 0 0 .412-1.517c-.3-.875-1.255-1.042-2.463-1.252-.323-.057-.67-.117-1.017-.194a1.13 1.13 0 0 1-.181-.055 2.658 2.658 0 0 1 .672-.991A41.007 41.007 0 0 0 6.95 29.16a4.266 4.266 0 0 0 .614-3.03v-.01a.985.985 0 0 0-.135-.615 6.673 6.673 0 0 0-.206-.629 8.775 8.775 0 0 1-.257-5.095 1 1 0 0 0-1.916-.575 10.578 10.578 0 0 0 .055 5.587 3.816 3.816 0 0 1-2.115-1.535 1 1 0 1 0-1.581 1.224A5.672 5.672 0 0 0 5.62 26.9a2.243 2.243 0 0 1-.357 1.183 39.606 39.606 0 0 1-3.346 4.253c-.484.484-1.569 1.746-1.2 3.021a2.051 2.051 0 0 0 1.687 1.392c.377.084.754.15 1.106.211l.354.063a3.354 3.354 0 0 0-1.139 2.823 2.19 2.19 0 0 0 .812 1.213 1.968 1.968 0 0 0-.219.985c.04.914.774 2.063 2.712 2.3.756.092.756.157.757.963a3.012 3.012 0 0 0 .244 1.407c.763 1.527 2.256 3.166 7.065 2.28 3.6-.665 3.633-.475 3.99 1.328a29.592 29.592 0 0 1 .124 4.086c0 .023.01.043.011.066a7.636 7.636 0 0 1-5.521 3.014 1 1 0 0 0 .111 1.994.872.872 0 0 0 .114-.007c6.994-.789 8.755-6.871 9.507-9.468a49.76 49.76 0 0 0 1.545-12.3c.1-4.2-.3-13.377-.569-16.123a30.076 30.076 0 0 0-2.38-9.045" style="fill:#fff"/>
        <path data-name="Path 73" d="M32.681 30.526a76.662 76.662 0 0 0-.632-9.612 1 1 0 0 0-1.958.408 78.3 78.3 0 0 1 .591 9.262l.048 1.58c.091 2.649 0 10.095-.184 11.913-.137 1.372-.888 8.421-2.215 12.5a21.579 21.579 0 0 1-3.98 7.413 1 1 0 0 0 1.58 1.228 23.379 23.379 0 0 0 4.3-8.022c1.356-4.163 2.105-10.939 2.3-12.916.192-1.917.288-9.416.193-12.181z" style="fill:#fff"/>
        <path data-name="Path 74" d="M39.384 28.778a1 1 0 0 0-.936 1.061 91.692 91.692 0 0 1-.091 13.3c-.174 1.808-.533 4.163-.881 6.439a70.2 70.2 0 0 0-1.006 8.528c0 3.729.232 7.6 1.913 10.647a1 1 0 1 0 1.751-.966c-1.462-2.65-1.664-6.219-1.664-9.681a71.023 71.023 0 0 1 .983-8.225c.352-2.3.716-4.686.9-6.55a94.043 94.043 0 0 0 .1-13.617 1 1 0 0 0-1.061-.936" style="fill:#fff"/>
    </g>
</svg>
