<svg xmlns="http://www.w3.org/2000/svg" width="48.78" height="55.435" viewBox="0 0 48.78 55.435">
    <defs>
        <clipPath id="ezpcg1i4ga">
            <path data-name="Rectangle 35" style="fill:none" d="M0 0h48.78v55.435H0z"/>
        </clipPath>
    </defs>
    <g data-name="Group 77" style="clip-path:url(#ezpcg1i4ga)">
        <path data-name="Path 60" d="M13.736 47.028c-3.947.728-4.576-.531-4.918-1.215a2.578 2.578 0 0 1-.028-.508 2.576 2.576 0 0 0-2.517-2.945c-.738-.089-.944-.354-.956-.385a.246.246 0 0 1 .159-.079 1 1 0 0 0 .773-1.185.983.983 0 0 0-.653-.72.948.948 0 0 0-.274-.179c-.551-.22-.642-.4-.643-.4-.041-.285.727-1.109.98-1.379l.248-.27a1.466 1.466 0 0 0 .413-1.517c-.3-.875-1.256-1.041-2.463-1.252-.324-.057-.67-.117-1.017-.194a1.25 1.25 0 0 1-.182-.054 2.659 2.659 0 0 1 .672-.992 40.777 40.777 0 0 0 3.619-4.594 4.266 4.266 0 0 0 .615-3.03v-.01a.985.985 0 0 0-.135-.615 6.673 6.673 0 0 0-.206-.629 8.775 8.775 0 0 1-.258-5.095 1 1 0 1 0-1.916-.574 10.585 10.585 0 0 0 .055 5.586 3.817 3.817 0 0 1-2.114-1.535 1 1 0 0 0-1.581 1.225A5.675 5.675 0 0 0 5.62 26.9a2.241 2.241 0 0 1-.358 1.183 39.492 39.492 0 0 1-3.346 4.257c-.483.483-1.568 1.745-1.2 3.021a2.053 2.053 0 0 0 1.687 1.391c.377.084.755.151 1.106.212l.355.063a3.348 3.348 0 0 0-1.139 2.822 2.192 2.192 0 0 0 .812 1.214 1.965 1.965 0 0 0-.219.985c.04.913.774 2.063 2.711 2.3.756.092.756.158.758.963a3 3 0 0 0 .243 1.407c.764 1.527 2.256 3.167 7.065 2.28 3.6-.663 3.634-.475 3.991 1.329a29.568 29.568 0 0 1 .123 4.085 1 1 0 0 0 .974 1.025h.026a1 1 0 0 0 1-.974 30.988 30.988 0 0 0-.16-4.526c-.665-3.36-2.16-3.674-6.315-2.907" style="fill:#fff"/>
        <path data-name="Path 61" d="M45.209 9.045C41.361 2.312 30.2.184 28.306.073 24.45-.158 14.719-.137 7.621 4.915-.065 10.383-.006 16.643 0 16.906a.961.961 0 0 0 1.017.973A1 1 0 0 0 2 16.864c0-.222.011-5.5 6.78-10.319 6.58-4.683 15.766-4.688 19.408-4.476 2.449.144 12.1 2.4 15.285 7.968 3.384 5.923 3.344 9.948 3.3 14.611-.006.537-.011 1.079-.011 1.628 0 5.219-.3 13.691-.977 16.186a15.88 15.88 0 0 1-2.765 4.912 1 1 0 0 0 1.53 1.287 17.635 17.635 0 0 0 3.165-5.677c.763-2.822 1.047-11.746 1.047-16.708 0-.542.005-1.077.011-1.608.047-4.747.093-9.23-3.561-15.623" style="fill:#fff"/>
        <path data-name="Path 62" d="M9.449 7.637a20.166 20.166 0 0 0-4.061 4.6 15.665 15.665 0 0 0-2.075 5.016 1 1 0 0 0 1.962.388 13.807 13.807 0 0 1 1.783-4.3 18.225 18.225 0 0 1 3.658-4.153 1 1 0 0 0-1.267-1.551" style="fill:#fff"/>
        <path data-name="Path 63" d="M7.486 17.79a1 1 0 0 0 .914 1.077.75.75 0 0 0 .082 0 1 1 0 0 0 .995-.92 9.438 9.438 0 0 1 1.189-3.82 15.683 15.683 0 0 1 2.8-3.471 1 1 0 1 0-1.228-1.579 17.4 17.4 0 0 0-3.313 4.058 11.461 11.461 0 0 0-1.439 4.655" style="fill:#fff"/>
        <path data-name="Path 64" d="M17.452 38.133a1 1 0 1 0 1.414 1.414c1.065-1.065 4.2-6.553 4.653-9.069a46.122 46.122 0 0 0 .368-9.125 23.154 23.154 0 0 0-2.587-8.678 1 1 0 1 0-1.765.941 21.317 21.317 0 0 1 2.355 7.84 44.884 44.884 0 0 1-.338 8.664c-.387 2.127-3.354 7.267-4.1 8.013" style="fill:#fff"/>
        <path data-name="Path 65" d="M30.24 24.962a1 1 0 1 0-2 .087 68.692 68.692 0 0 1-.275 7.385 10.88 10.88 0 0 1-2.13 5.585 11.46 11.46 0 0 1-2.747 2.57 1 1 0 0 0 .5 1.863.989.989 0 0 0 .5-.136 13.373 13.373 0 0 0 3.324-3.077 12.928 12.928 0 0 0 2.529-6.556 70.169 70.169 0 0 0 .289-7.721" style="fill:#fff"/>
        <path data-name="Path 66" d="M36.147 29.758a1 1 0 1 0-2 0 30 30 0 0 1-.8 7.59 12.748 12.748 0 0 1-4.088 6.3 1 1 0 1 0 1.231 1.582 14.669 14.669 0 0 0 4.759-7.25 31.755 31.755 0 0 0 .9-8.222" style="fill:#fff"/>
        <path data-name="Path 67" d="M41.487 33.747a.981.981 0 0 0-1.034.965 21.738 21.738 0 0 1-1.5 7.6 14.913 14.913 0 0 1-3.674 4.356 1 1 0 1 0 1.249 1.561 16.993 16.993 0 0 0 4.231-5.057 23.984 23.984 0 0 0 1.7-8.4 1 1 0 0 0-.965-1.034" style="fill:#fff"/>
        <path data-name="Path 68" d="M38.585 49.938a1 1 0 1 0-1.981-.265 7.5 7.5 0 0 0 1.091 5.287 1 1 0 0 0 1.68-1.086 5.524 5.524 0 0 1-.79-3.936" style="fill:#fff"/>
    </g>
</svg>
