<svg xmlns="http://www.w3.org/2000/svg" width="14.766" height="13.93" viewBox="0 0 14.766 13.93">
    <path data-name="Path 91" d="M1764.049 7014.965a1 1 0 0 1-.659-.248l-6.8-5.965a1 1 0 0 1 1.319-1.5l6.1 5.347 5.3-5.3a1 1 0 0 1 1.414 1.414l-5.965 5.965a1 1 0 0 1-.709.287z" transform="translate(-1756.248 -7001.035)" style="fill:#fff"/>
    <path data-name="Path 92" d="M1764.049 7014.965a1 1 0 0 1-.659-.248l-6.8-5.965a1 1 0 0 1 1.319-1.5l6.1 5.347 5.3-5.3a1 1 0 0 1 1.414 1.414l-5.965 5.965a1 1 0 0 1-.709.287z" transform="translate(-1756.248 -7007)" style="fill:#fff"/>
</svg>
