<svg xmlns="http://www.w3.org/2000/svg" width="48.463" height="55.435" viewBox="0 0 48.463 55.435">
    <defs>
        <clipPath id="qlw6502jla">
            <path data-name="Rectangle 34" style="fill:none" d="M0 0h48.463v55.435H0z"/>
        </clipPath>
    </defs>
    <g data-name="Group 75" style="clip-path:url(#qlw6502jla)">
        <path data-name="Path 56" d="M13.736 47.028c-3.947.728-4.575-.531-4.918-1.215a2.578 2.578 0 0 1-.028-.508 2.576 2.576 0 0 0-2.517-2.945c-.738-.089-.944-.354-.956-.385a.246.246 0 0 1 .159-.079 1 1 0 0 0 .773-1.185.987.987 0 0 0-.652-.72.988.988 0 0 0-.275-.179c-.551-.22-.642-.4-.643-.4-.041-.284.727-1.109.98-1.379l.248-.27a1.466 1.466 0 0 0 .413-1.517c-.3-.875-1.256-1.041-2.463-1.252-.324-.057-.67-.117-1.017-.194a1.25 1.25 0 0 1-.182-.054 2.659 2.659 0 0 1 .672-.992 40.777 40.777 0 0 0 3.619-4.594 4.267 4.267 0 0 0 .615-3.03v-.01a.979.979 0 0 0-.135-.615 8.424 8.424 0 0 0-.2-.629 8.764 8.764 0 0 1-.258-5.095 1 1 0 1 0-1.916-.574 10.584 10.584 0 0 0 .055 5.586 3.812 3.812 0 0 1-2.12-1.535 1 1 0 0 0-1.581 1.225A5.672 5.672 0 0 0 5.62 26.9a2.241 2.241 0 0 1-.358 1.183 39.465 39.465 0 0 1-3.346 4.257c-.483.483-1.568 1.745-1.2 3.02a2.052 2.052 0 0 0 1.687 1.392c.377.084.755.151 1.106.212l.355.063a3.345 3.345 0 0 0-1.139 2.822 2.178 2.178 0 0 0 .812 1.214 1.944 1.944 0 0 0-.219.985c.04.913.774 2.063 2.711 2.3.756.092.756.158.758.963a3 3 0 0 0 .243 1.407c.764 1.527 2.257 3.166 7.065 2.28 3.6-.662 3.634-.475 3.991 1.328a29.75 29.75 0 0 1 .123 4.086 1 1 0 0 0 .973 1.026h.027a1 1 0 0 0 1-.974 31.131 31.131 0 0 0-.16-4.526c-.665-3.359-2.159-3.673-6.315-2.907" style="fill:#fff"/>
        <path data-name="Path 57" d="M45.231 9.086C41.782 2.344 30.279.189 28.306.073 24.45-.159 14.718-.137 7.62 4.915-.065 10.383-.006 16.643 0 16.906a.977.977 0 0 0 1.017.973A1 1 0 0 0 2 16.864c0-.222.011-5.5 6.779-10.32 6.581-4.683 15.767-4.687 19.41-4.475 2.547.15 12.442 2.415 15.262 7.928a26.241 26.241 0 0 1 2.724 16.058c-.569 3.873-3.873 7.727-6.058 10.277-.344.4-.657.767-.925 1.091a13.743 13.743 0 0 0-2.774 4.788 8.759 8.759 0 0 1-3.257-6.159 7.457 7.457 0 0 0 2.419-2.082c1.628-1.954 2.208-5.587 2.208-8.335 0-3.185-1.763-5.164-4.6-5.164-2.118 0-3.959 1.875-4.771 2.846-1.638-.423-2.451-1.053-4.444-3.228-2.088-2.276-2.776-7.174-2.783-7.223a1 1 0 1 0-1.981.268c.03.226.777 5.566 3.289 8.306 2.36 2.576 3.448 3.41 6.106 3.974a1.006 1.006 0 0 0 1.021-.4c.475-.661 2.149-2.547 3.563-2.547 2.149 0 2.6 1.72 2.6 3.164 0 2.47-.539 5.608-1.745 7.055-1.379 1.654-2.076 1.849-2.953 1.644a2.126 2.126 0 0 1-1.137-1.922 1 1 0 0 0-2 0 4.007 4.007 0 0 0 2.674 3.867 4.547 4.547 0 0 0 .559.1 10.6 10.6 0 0 0 4.764 7.936 22.048 22.048 0 0 0 1.228 9.867 1 1 0 0 0 1.9-.615C36.094 44.332 39 40.8 40.736 38.695c.261-.316.565-.672.9-1.062 2.336-2.724 5.865-6.842 6.519-11.287a28.2 28.2 0 0 0-2.923-17.26" style="fill:#fff"/>
        <path data-name="Path 58" d="M9.449 7.638a20.142 20.142 0 0 0-4.06 4.6 15.7 15.7 0 0 0-2.076 5.015 1 1 0 0 0 .787 1.174 1.019 1.019 0 0 0 .2.02 1 1 0 0 0 .98-.805 13.852 13.852 0 0 1 1.784-4.3 18.156 18.156 0 0 1 3.657-4.153 1 1 0 0 0-1.272-1.551" style="fill:#fff"/>
        <path data-name="Path 59" d="M7.486 17.79a1 1 0 0 0 .914 1.077.75.75 0 0 0 .082 0 1 1 0 0 0 .995-.92 9.438 9.438 0 0 1 1.189-3.82 15.711 15.711 0 0 1 2.8-3.471 1 1 0 1 0-1.228-1.579 17.4 17.4 0 0 0-3.313 4.058 11.461 11.461 0 0 0-1.439 4.655" style="fill:#fff"/>
    </g>
</svg>
