<svg xmlns="http://www.w3.org/2000/svg" width="55.817" height="42.665" viewBox="0 0 55.817 42.665">
    <g data-name="Group 83">
        <g data-name="Group 82">
            <path data-name="Path 88" d="M30.6 37.847a6.887 6.887 0 0 0-2.294 1.112c-.828.615-1.041.922-1.845 2.554l-.71 1.419-5.3.047c-5.842.071-5.558.024-7.024.8a7.519 7.519 0 0 0-2.7 2.814c-.751 1.542-.727.951-.727 15.094 0 12.346 0 12.8.213 13.6a6.627 6.627 0 0 0 4.872 4.872c.828.213 1.3.213 22.823.213s22 0 22.823-.213a6.627 6.627 0 0 0 4.869-4.873c.213-.828.213-1.254.213-13.6 0-14.167.024-13.552-.733-15.089a7.268 7.268 0 0 0-4.021-3.406 41.714 41.714 0 0 0-5.724-.213h-5.27l-.71-1.443A9.446 9.446 0 0 0 48.2 39.6a7.345 7.345 0 0 0-2.46-1.585l-.686-.26-6.93-.024c-5.845-.05-7.004-.031-7.524.116zm14.238 3.595a2.6 2.6 0 0 1 .733.473 20.753 20.753 0 0 1 1.064 2.01c.922 1.916 1.23 2.294 1.916 2.483.284.071 2.294.118 5.842.118 5.984 0 6.007 0 6.835.71a4.207 4.207 0 0 1 .733.946l.331.591.024 12.7c.024 14.593.095 13.457-.946 14.522-1.064 1.064 1.23.97-23.438.97-24.692 0-22.374.095-23.438-.97-1.041-1.064-.97.071-.946-14.522V48.75l.331-.591a5.022 5.022 0 0 1 .733-.946c.828-.71.828-.71 6.835-.71 3.548 0 5.558-.047 5.842-.118.686-.189.993-.568 1.916-2.483a16.28 16.28 0 0 1 1.064-2.01 2.6 2.6 0 0 1 .731-.474l.544-.26h12.773z" transform="translate(-10 -37.706)" style="fill:#fff"/>
            <path data-name="Path 89" d="M86.627 85.737a12.314 12.314 0 0 0-8.987 6.67 12.191 12.191 0 1 0 19.583-3.24 12.373 12.373 0 0 0-10.596-3.43zm4.044 3.595a8.714 8.714 0 1 1-8.727 2.862 8.869 8.869 0 0 1 5.014-2.956 10.871 10.871 0 0 1 3.714.094z" transform="translate(-60.682 -74.267)" style="fill:#fff"/>
        </g>
    </g>
</svg>
